<?xml version="1.0" encoding="utf-8"?><svg version="1.1" id="Layer_1" xmlns="http://www.w3.org/2000/svg" xmlns:xlink="http://www.w3.org/1999/xlink" x="0px" y="0px" viewBox="0 0 122.88 116.32" style="enable-background:new 0 0 122.88 116.32" xml:space="preserve"><style type="text/css">.st0{fill-rule:evenodd;clip-rule:evenodd;}</style><g><path class="st0" d="M49.29,94.54l4.17-14.46l-2.04-2.24c-0.92-1.34-1.12-2.52-0.61-3.53c1.11-2.19,3.4-1.78,5.53-1.78 c2.24,0,5.01-0.42,5.71,2.38c0.24,0.94-0.06,1.92-0.72,2.93l-2.04,2.24l4.17,14.46l-7.08,5.6L49.29,94.54L49.29,94.54L49.29,94.54z M84.23,93.46l4.54-4.76l6.55,6.3l10.2-13.59l5.07,4.09c-2.39,2.96-10.91,14.65-12.77,16.17c-1.53,1.25-3.73,1.25-5.15-0.12 L84.23,93.46L84.23,93.46z M97.39,65.33c7.04,0,13.41,2.85,18.02,7.47c4.61,4.61,7.47,10.99,7.47,18.02 c0,7.04-2.85,13.41-7.47,18.03c-4.61,4.61-10.99,7.47-18.02,7.47c-6.52,0-12.46-2.45-16.97-6.47c-25.34-0.06-53.4-0.54-74.87-0.18 c-5.38,0.09-5.94,0.48-5.37-7.18c1.89-8.93,5.49-16.01,13.44-20.99c5.52-3.46,12.63-6.36,19.91-9.19c0.93-0.84,2.13-1.86,3.4-2.93 c2.96-2.51,6.33-5.35,6.89-6.35c-1-1-1.91-2.05-2.81-3.09l-3.84-4.46l-2.71,0.07l-5.39,0.14c-4.63-5.33-4.34-16.77-3.9-23.37 c2.16-13.27,7.29-22.83,15.65-28.36C46.48,0.21,49.86,0.01,56.47,0c5.78,0,9.32-0.13,14.24,3.12 C86.77,13.69,91.74,38.63,83.9,55.43l-5.48,0c-0.14,0.16-0.27,0.32-0.4,0.47l-0.5,0.58l-2.44,2.93c-1.43,1.72-2.88,3.45-4.6,4.96 c0.93,1.21,3.79,3.71,6.32,5.93c0.77,0.67,1.51,1.32,2.17,1.92l0.7,0.27C84.27,68.06,90.51,65.33,97.39,65.33L97.39,65.33 L97.39,65.33z M71.92,91.89c-0.01-0.35-0.02-0.71-0.02-1.07c0-6.23,2.23-11.93,5.94-16.36c-0.75-0.68-1.67-1.48-2.63-2.33 c-2.49-2.18-5.27-4.62-6.6-6.28l-0.12,0.08c-2.75,1.88-6.15,3.14-10.79,3.13c-4.33-0.01-7.6-1.22-10.27-3 c-0.65-0.43-1.26-0.9-1.84-1.39c-1.31,1.68-4.35,4.26-7.08,6.57c-2.2,1.86-4.18,3.54-4.62,4.14c-0.05,0.07-0.1,0.13-0.16,0.18 c-2.86,3.61-5.4,7.47-7.54,11.77l9.15-0.22l21.04,18.3L71.92,91.89L71.92,91.89L71.92,91.89z M112.4,75.81 c-3.84-3.84-9.15-6.22-15.01-6.22c-5.86,0-11.17,2.38-15.01,6.22c-3.84,3.84-6.22,9.15-6.22,15.01c0,5.86,2.38,11.17,6.22,15.01 c3.84,3.84,9.15,6.22,15.01,6.22c5.86,0,11.17-2.38,15.01-6.22c3.84-3.84,6.22-9.15,6.22-15.01 C118.62,84.96,116.24,79.65,112.4,75.81L112.4,75.81z M38.31,53.41c-4.44-15.3-2.32-29.36,9.72-41.39 c2.13,6.9,6.92,12.59,15.05,16.8c3.89,2.89,7.65,6.38,11.3,10.39c0.65-2.66-1.82-5.89-4.8-9.22c2.76,1.37,5.3,3.27,7.11,6.95 c2.09,4.26,2.06,7.86,1.37,12.49c-0.21,1.38-0.5,2.71-0.88,3.97c-0.18,0.08-0.33,0.19-0.44,0.33c-0.33,0.41-0.67,0.8-0.97,1.15 c-0.1,0.12-0.21,0.24-0.51,0.6l-2.44,2.93c-1.86,2.24-3.75,4.48-6.14,6.11c-2.29,1.57-5.12,2.61-8.98,2.6 c-3.56-0.01-6.26-1.01-8.48-2.49c-2.32-1.55-4.19-3.65-5.97-5.72l-4.45-5.17C38.67,53.6,38.5,53.48,38.31,53.41L38.31,53.41 L38.31,53.41z"/></g></svg>